<mxfile host="app.diagrams.net" modified="2023-10-09T18:55:40.805Z" agent="Mozilla/5.0 (Windows NT 10.0; Win64; x64; rv:109.0) Gecko/20100101 Firefox/118.0" etag="ihfyVfHejwXyaWLCt6ZO" version="22.0.4" type="device">
  <diagram name="Create Building&#39;s Post" id="58qk8amYZC4i2tyVc62f">
    <mxGraphModel dx="1434" dy="774" grid="1" gridSize="10" guides="1" tooltips="1" connect="1" arrows="1" fold="1" page="1" pageScale="1" pageWidth="827" pageHeight="1169" math="0" shadow="0">
      <root>
        <mxCell id="dsDYB3K5QXEbDidPds9u-0" />
        <mxCell id="dsDYB3K5QXEbDidPds9u-1" parent="dsDYB3K5QXEbDidPds9u-0" />
        <mxCell id="wt2irbwT1ydWuY7uJc_d-68" value="" style="rounded=1;whiteSpace=wrap;html=1;" parent="dsDYB3K5QXEbDidPds9u-1" vertex="1">
          <mxGeometry x="344" y="157" width="620" height="463" as="geometry" />
        </mxCell>
        <mxCell id="xL-tOzKnqsiwL6wojlu8-9" value="4" style="ellipse;whiteSpace=wrap;html=1;aspect=fixed;fillColor=#f5f5f5;fontColor=#333333;strokeColor=#666666;" parent="dsDYB3K5QXEbDidPds9u-1" vertex="1">
          <mxGeometry x="604.5" y="484.37" width="20" height="20" as="geometry" />
        </mxCell>
        <mxCell id="wt2irbwT1ydWuY7uJc_d-73" value="&lt;div align=&quot;left&quot;&gt;Building Type&lt;br&gt;&lt;/div&gt;" style="rounded=0;whiteSpace=wrap;html=1;align=left;" parent="dsDYB3K5QXEbDidPds9u-1" vertex="1">
          <mxGeometry x="517.5" y="205" width="252.5" height="20" as="geometry" />
        </mxCell>
        <mxCell id="wt2irbwT1ydWuY7uJc_d-74" value="" style="triangle;whiteSpace=wrap;html=1;rotation=90;" parent="dsDYB3K5QXEbDidPds9u-1" vertex="1">
          <mxGeometry x="747.5" y="205" width="10" height="20" as="geometry" />
        </mxCell>
        <mxCell id="wt2irbwT1ydWuY7uJc_d-75" value="Occupied rooms" style="rounded=0;whiteSpace=wrap;html=1;align=left;" parent="dsDYB3K5QXEbDidPds9u-1" vertex="1">
          <mxGeometry x="517.5" y="235" width="252.5" height="20" as="geometry" />
        </mxCell>
        <mxCell id="wt2irbwT1ydWuY7uJc_d-76" value="X " style="rounded=0;whiteSpace=wrap;html=1;" parent="dsDYB3K5QXEbDidPds9u-1" vertex="1">
          <mxGeometry x="730" y="235" width="39" height="20" as="geometry" />
        </mxCell>
        <mxCell id="wt2irbwT1ydWuY7uJc_d-77" value="Rooms available now" style="rounded=0;whiteSpace=wrap;html=1;align=left;" parent="dsDYB3K5QXEbDidPds9u-1" vertex="1">
          <mxGeometry x="518" y="267" width="252.5" height="20" as="geometry" />
        </mxCell>
        <mxCell id="wt2irbwT1ydWuY7uJc_d-78" value="X " style="rounded=0;whiteSpace=wrap;html=1;" parent="dsDYB3K5QXEbDidPds9u-1" vertex="1">
          <mxGeometry x="730.5" y="267" width="39" height="20" as="geometry" />
        </mxCell>
        <mxCell id="wt2irbwT1ydWuY7uJc_d-79" value="&amp;nbsp;Insert email" style="rounded=0;whiteSpace=wrap;html=1;align=left;" parent="dsDYB3K5QXEbDidPds9u-1" vertex="1">
          <mxGeometry x="518" y="362" width="253" height="30" as="geometry" />
        </mxCell>
        <mxCell id="wt2irbwT1ydWuY7uJc_d-80" value="" style="rounded=0;whiteSpace=wrap;html=1;" parent="dsDYB3K5QXEbDidPds9u-1" vertex="1">
          <mxGeometry x="517.5" y="392" width="103.5" height="48" as="geometry" />
        </mxCell>
        <mxCell id="wt2irbwT1ydWuY7uJc_d-81" value="Step 1" style="rounded=0;whiteSpace=wrap;html=1;" parent="dsDYB3K5QXEbDidPds9u-1" vertex="1">
          <mxGeometry x="499" y="80" width="310" height="40" as="geometry" />
        </mxCell>
        <mxCell id="wt2irbwT1ydWuY7uJc_d-82" value="" style="rounded=1;whiteSpace=wrap;html=1;" parent="dsDYB3K5QXEbDidPds9u-1" vertex="1">
          <mxGeometry x="348" y="740" width="620" height="390" as="geometry" />
        </mxCell>
        <mxCell id="wt2irbwT1ydWuY7uJc_d-83" value="Rent per room/full accommodation" style="rounded=0;whiteSpace=wrap;html=1;align=left;" parent="dsDYB3K5QXEbDidPds9u-1" vertex="1">
          <mxGeometry x="521.5" y="846" width="252.5" height="20" as="geometry" />
        </mxCell>
        <mxCell id="wt2irbwT1ydWuY7uJc_d-84" value="Security Deposit" style="rounded=0;whiteSpace=wrap;html=1;align=left;" parent="dsDYB3K5QXEbDidPds9u-1" vertex="1">
          <mxGeometry x="521.5" y="878" width="252.5" height="20" as="geometry" />
        </mxCell>
        <mxCell id="wt2irbwT1ydWuY7uJc_d-85" value="X " style="rounded=0;whiteSpace=wrap;html=1;" parent="dsDYB3K5QXEbDidPds9u-1" vertex="1">
          <mxGeometry x="734" y="878" width="39" height="20" as="geometry" />
        </mxCell>
        <mxCell id="wt2irbwT1ydWuY7uJc_d-86" value="Available on" style="rounded=0;whiteSpace=wrap;html=1;align=left;" parent="dsDYB3K5QXEbDidPds9u-1" vertex="1">
          <mxGeometry x="522" y="908" width="252.5" height="20" as="geometry" />
        </mxCell>
        <mxCell id="wt2irbwT1ydWuY7uJc_d-87" value="dd/mm/yy" style="rounded=0;whiteSpace=wrap;html=1;" parent="dsDYB3K5QXEbDidPds9u-1" vertex="1">
          <mxGeometry x="700" y="908" width="74.5" height="20" as="geometry" />
        </mxCell>
        <mxCell id="wt2irbwT1ydWuY7uJc_d-88" value="Step 2" style="rounded=0;whiteSpace=wrap;html=1;" parent="dsDYB3K5QXEbDidPds9u-1" vertex="1">
          <mxGeometry x="503" y="666" width="310" height="40" as="geometry" />
        </mxCell>
        <mxCell id="wt2irbwT1ydWuY7uJc_d-89" value="X " style="rounded=0;whiteSpace=wrap;html=1;" parent="dsDYB3K5QXEbDidPds9u-1" vertex="1">
          <mxGeometry x="734" y="846" width="39" height="20" as="geometry" />
        </mxCell>
        <mxCell id="wt2irbwT1ydWuY7uJc_d-90" value="Currency" style="rounded=0;whiteSpace=wrap;html=1;align=left;fontStyle=1" parent="dsDYB3K5QXEbDidPds9u-1" vertex="1">
          <mxGeometry x="521.5" y="816" width="252.5" height="20" as="geometry" />
        </mxCell>
        <mxCell id="wt2irbwT1ydWuY7uJc_d-91" value="" style="triangle;whiteSpace=wrap;html=1;rotation=90;" parent="dsDYB3K5QXEbDidPds9u-1" vertex="1">
          <mxGeometry x="749.5" y="816" width="10" height="20" as="geometry" />
        </mxCell>
        <mxCell id="wt2irbwT1ydWuY7uJc_d-92" value="Other bills specifications" style="rounded=0;whiteSpace=wrap;html=1;align=left;" parent="dsDYB3K5QXEbDidPds9u-1" vertex="1">
          <mxGeometry x="521.5" y="939" width="252.5" height="20" as="geometry" />
        </mxCell>
        <mxCell id="wt2irbwT1ydWuY7uJc_d-93" value="" style="rounded=0;whiteSpace=wrap;html=1;" parent="dsDYB3K5QXEbDidPds9u-1" vertex="1">
          <mxGeometry x="1091" y="1058.5" width="253" height="89.5" as="geometry" />
        </mxCell>
        <mxCell id="wt2irbwT1ydWuY7uJc_d-94" value="" style="rounded=1;whiteSpace=wrap;html=1;" parent="dsDYB3K5QXEbDidPds9u-1" vertex="1">
          <mxGeometry x="355" y="1370" width="620" height="390" as="geometry" />
        </mxCell>
        <mxCell id="wt2irbwT1ydWuY7uJc_d-95" value="&amp;nbsp;&amp;nbsp;&amp;nbsp;&amp;nbsp;&amp;nbsp;&amp;nbsp;&amp;nbsp;&amp;nbsp;&amp;nbsp;&amp;nbsp;&amp;nbsp;&amp;nbsp; Building services tags" style="rounded=0;whiteSpace=wrap;html=1;align=left;" parent="dsDYB3K5QXEbDidPds9u-1" vertex="1">
          <mxGeometry x="458.5" y="1400" width="411.5" height="20" as="geometry" />
        </mxCell>
        <mxCell id="wt2irbwT1ydWuY7uJc_d-96" value="Step 3" style="rounded=0;whiteSpace=wrap;html=1;" parent="dsDYB3K5QXEbDidPds9u-1" vertex="1">
          <mxGeometry x="510" y="1270" width="310" height="40" as="geometry" />
        </mxCell>
        <mxCell id="wt2irbwT1ydWuY7uJc_d-97" value="&amp;nbsp;&amp;nbsp;&amp;nbsp;&amp;nbsp;&amp;nbsp;&amp;nbsp;&amp;nbsp;&amp;nbsp; Bathroom" style="rounded=0;whiteSpace=wrap;html=1;align=left;" parent="dsDYB3K5QXEbDidPds9u-1" vertex="1">
          <mxGeometry x="457.5" y="1510" width="412.5" height="20" as="geometry" />
        </mxCell>
        <mxCell id="wt2irbwT1ydWuY7uJc_d-102" value="Link users" style="text;html=1;align=center;verticalAlign=middle;resizable=0;points=[];autosize=1;strokeColor=none;fillColor=none;" parent="dsDYB3K5QXEbDidPds9u-1" vertex="1">
          <mxGeometry x="604.5" y="339" width="80" height="30" as="geometry" />
        </mxCell>
        <mxCell id="wt2irbwT1ydWuY7uJc_d-103" value="&lt;font style=&quot;font-size: 9px;&quot;&gt;Name Surname&lt;/font&gt;" style="rounded=0;whiteSpace=wrap;html=1;" parent="dsDYB3K5QXEbDidPds9u-1" vertex="1">
          <mxGeometry x="518" y="392" width="103" height="18" as="geometry" />
        </mxCell>
        <mxCell id="wt2irbwT1ydWuY7uJc_d-108" value="&lt;font style=&quot;font-size: 9px;&quot;&gt;Name Surname&lt;/font&gt;" style="rounded=0;whiteSpace=wrap;html=1;" parent="dsDYB3K5QXEbDidPds9u-1" vertex="1">
          <mxGeometry x="518" y="410" width="103" height="18" as="geometry" />
        </mxCell>
        <mxCell id="wt2irbwT1ydWuY7uJc_d-113" value="..." style="text;html=1;align=center;verticalAlign=middle;resizable=0;points=[];autosize=1;strokeColor=none;fillColor=none;" parent="dsDYB3K5QXEbDidPds9u-1" vertex="1">
          <mxGeometry x="554.25" y="416" width="30" height="30" as="geometry" />
        </mxCell>
        <mxCell id="wt2irbwT1ydWuY7uJc_d-115" value="Linked Users" style="text;html=1;align=center;verticalAlign=middle;resizable=0;points=[];autosize=1;strokeColor=none;fillColor=none;" parent="dsDYB3K5QXEbDidPds9u-1" vertex="1">
          <mxGeometry x="510" y="478.37" width="100" height="30" as="geometry" />
        </mxCell>
        <mxCell id="wt2irbwT1ydWuY7uJc_d-126" value="Add unaccount users:" style="text;html=1;align=center;verticalAlign=middle;resizable=0;points=[];autosize=1;strokeColor=none;fillColor=none;" parent="dsDYB3K5QXEbDidPds9u-1" vertex="1">
          <mxGeometry x="512" y="447.87" width="140" height="30" as="geometry" />
        </mxCell>
        <mxCell id="wt2irbwT1ydWuY7uJc_d-127" value="2" style="rounded=0;whiteSpace=wrap;html=1;strokeColor=none;" parent="dsDYB3K5QXEbDidPds9u-1" vertex="1">
          <mxGeometry x="642.25" y="449.87" width="77.25" height="28.5" as="geometry" />
        </mxCell>
        <mxCell id="wt2irbwT1ydWuY7uJc_d-129" value="" style="rounded=0;whiteSpace=wrap;html=1;" parent="dsDYB3K5QXEbDidPds9u-1" vertex="1">
          <mxGeometry x="654.25" y="462.62" width="10" height="3" as="geometry" />
        </mxCell>
        <mxCell id="wt2irbwT1ydWuY7uJc_d-131" value="" style="shape=cross;whiteSpace=wrap;html=1;" parent="dsDYB3K5QXEbDidPds9u-1" vertex="1">
          <mxGeometry x="695" y="456.12" width="15.5" height="17" as="geometry" />
        </mxCell>
        <mxCell id="wt2irbwT1ydWuY7uJc_d-140" value="General" style="rounded=0;whiteSpace=wrap;html=1;fillColor=#dae8fc;strokeColor=#6c8ebf;" parent="dsDYB3K5QXEbDidPds9u-1" vertex="1">
          <mxGeometry x="350" y="50" width="120" height="30" as="geometry" />
        </mxCell>
        <mxCell id="wt2irbwT1ydWuY7uJc_d-141" value="Rent" style="rounded=0;whiteSpace=wrap;html=1;" parent="dsDYB3K5QXEbDidPds9u-1" vertex="1">
          <mxGeometry x="470" y="50" width="120" height="30" as="geometry" />
        </mxCell>
        <mxCell id="wt2irbwT1ydWuY7uJc_d-142" value="Tags" style="rounded=0;whiteSpace=wrap;html=1;" parent="dsDYB3K5QXEbDidPds9u-1" vertex="1">
          <mxGeometry x="590" y="50" width="120" height="30" as="geometry" />
        </mxCell>
        <mxCell id="wt2irbwT1ydWuY7uJc_d-143" value="Location" style="rounded=0;whiteSpace=wrap;html=1;" parent="dsDYB3K5QXEbDidPds9u-1" vertex="1">
          <mxGeometry x="710" y="50" width="120" height="30" as="geometry" />
        </mxCell>
        <mxCell id="wt2irbwT1ydWuY7uJc_d-144" value="Images" style="rounded=0;whiteSpace=wrap;html=1;" parent="dsDYB3K5QXEbDidPds9u-1" vertex="1">
          <mxGeometry x="830" y="50" width="120" height="30" as="geometry" />
        </mxCell>
        <mxCell id="wt2irbwT1ydWuY7uJc_d-145" value="General" style="rounded=0;whiteSpace=wrap;html=1;fillColor=#dae8fc;strokeColor=#6c8ebf;" parent="dsDYB3K5QXEbDidPds9u-1" vertex="1">
          <mxGeometry x="354" y="636" width="120" height="30" as="geometry" />
        </mxCell>
        <mxCell id="wt2irbwT1ydWuY7uJc_d-146" value="Rent" style="rounded=0;whiteSpace=wrap;html=1;fillColor=#dae8fc;strokeColor=#6c8ebf;" parent="dsDYB3K5QXEbDidPds9u-1" vertex="1">
          <mxGeometry x="474" y="636" width="120" height="30" as="geometry" />
        </mxCell>
        <mxCell id="wt2irbwT1ydWuY7uJc_d-147" value="Tags" style="rounded=0;whiteSpace=wrap;html=1;" parent="dsDYB3K5QXEbDidPds9u-1" vertex="1">
          <mxGeometry x="594" y="636" width="120" height="30" as="geometry" />
        </mxCell>
        <mxCell id="wt2irbwT1ydWuY7uJc_d-148" value="Location" style="rounded=0;whiteSpace=wrap;html=1;" parent="dsDYB3K5QXEbDidPds9u-1" vertex="1">
          <mxGeometry x="714" y="636" width="120" height="30" as="geometry" />
        </mxCell>
        <mxCell id="wt2irbwT1ydWuY7uJc_d-149" value="Images" style="rounded=0;whiteSpace=wrap;html=1;" parent="dsDYB3K5QXEbDidPds9u-1" vertex="1">
          <mxGeometry x="834" y="636" width="120" height="30" as="geometry" />
        </mxCell>
        <mxCell id="wt2irbwT1ydWuY7uJc_d-150" value="General" style="rounded=0;whiteSpace=wrap;html=1;fillColor=#dae8fc;strokeColor=#6c8ebf;" parent="dsDYB3K5QXEbDidPds9u-1" vertex="1">
          <mxGeometry x="375" y="1240" width="120" height="30" as="geometry" />
        </mxCell>
        <mxCell id="wt2irbwT1ydWuY7uJc_d-151" value="Rent" style="rounded=0;whiteSpace=wrap;html=1;fillColor=#dae8fc;strokeColor=#6c8ebf;" parent="dsDYB3K5QXEbDidPds9u-1" vertex="1">
          <mxGeometry x="495" y="1240" width="120" height="30" as="geometry" />
        </mxCell>
        <mxCell id="wt2irbwT1ydWuY7uJc_d-152" value="Tags" style="rounded=0;whiteSpace=wrap;html=1;fillColor=#dae8fc;strokeColor=#6c8ebf;" parent="dsDYB3K5QXEbDidPds9u-1" vertex="1">
          <mxGeometry x="615" y="1240" width="120" height="30" as="geometry" />
        </mxCell>
        <mxCell id="wt2irbwT1ydWuY7uJc_d-153" value="Location" style="rounded=0;whiteSpace=wrap;html=1;" parent="dsDYB3K5QXEbDidPds9u-1" vertex="1">
          <mxGeometry x="735" y="1240" width="120" height="30" as="geometry" />
        </mxCell>
        <mxCell id="wt2irbwT1ydWuY7uJc_d-154" value="Images" style="rounded=0;whiteSpace=wrap;html=1;" parent="dsDYB3K5QXEbDidPds9u-1" vertex="1">
          <mxGeometry x="855" y="1240" width="120" height="30" as="geometry" />
        </mxCell>
        <mxCell id="xL-tOzKnqsiwL6wojlu8-4" value="" style="shape=image;html=1;verticalAlign=top;verticalLabelPosition=bottom;labelBackgroundColor=#ffffff;imageAspect=0;aspect=fixed;image=https://cdn4.iconfinder.com/data/icons/48-bubbles/48/30.User-128.png" parent="dsDYB3K5QXEbDidPds9u-1" vertex="1">
          <mxGeometry x="520" y="394.5" width="15" height="15" as="geometry" />
        </mxCell>
        <mxCell id="xL-tOzKnqsiwL6wojlu8-5" value="" style="shape=image;html=1;verticalAlign=top;verticalLabelPosition=bottom;labelBackgroundColor=#ffffff;imageAspect=0;aspect=fixed;image=https://cdn4.iconfinder.com/data/icons/48-bubbles/48/30.User-128.png" parent="dsDYB3K5QXEbDidPds9u-1" vertex="1">
          <mxGeometry x="520" y="411.5" width="15" height="15" as="geometry" />
        </mxCell>
        <mxCell id="wt2irbwT1ydWuY7uJc_d-67" value="" style="ellipse;whiteSpace=wrap;html=1;" parent="dsDYB3K5QXEbDidPds9u-1" vertex="1">
          <mxGeometry x="1132" y="481" width="13" height="14" as="geometry" />
        </mxCell>
        <mxCell id="wt2irbwT1ydWuY7uJc_d-114" value="" style="rounded=0;whiteSpace=wrap;html=1;" parent="dsDYB3K5QXEbDidPds9u-1" vertex="1">
          <mxGeometry x="1130" y="476" width="253" height="24" as="geometry" />
        </mxCell>
        <mxCell id="wt2irbwT1ydWuY7uJc_d-116" value="Antonio Jimenez" style="text;html=1;align=center;verticalAlign=middle;resizable=0;points=[];autosize=1;strokeColor=none;fillColor=none;" parent="dsDYB3K5QXEbDidPds9u-1" vertex="1">
          <mxGeometry x="1152.5" y="473.13" width="110" height="30" as="geometry" />
        </mxCell>
        <mxCell id="wt2irbwT1ydWuY7uJc_d-119" value="" style="shape=image;verticalLabelPosition=bottom;labelBackgroundColor=default;verticalAlign=top;aspect=fixed;imageAspect=0;image=https://cdn0.iconfinder.com/data/icons/trash-13/100/trash_bin_recycle_waste_rubbish-04-512.png;" parent="dsDYB3K5QXEbDidPds9u-1" vertex="1">
          <mxGeometry x="1359.5" y="476" width="24.25" height="24.25" as="geometry" />
        </mxCell>
        <mxCell id="wt2irbwT1ydWuY7uJc_d-120" value="" style="ellipse;whiteSpace=wrap;html=1;" parent="dsDYB3K5QXEbDidPds9u-1" vertex="1">
          <mxGeometry x="1132" y="504.87" width="13" height="14" as="geometry" />
        </mxCell>
        <mxCell id="wt2irbwT1ydWuY7uJc_d-121" value="" style="rounded=0;whiteSpace=wrap;html=1;" parent="dsDYB3K5QXEbDidPds9u-1" vertex="1">
          <mxGeometry x="1130" y="499.87" width="253" height="24" as="geometry" />
        </mxCell>
        <mxCell id="wt2irbwT1ydWuY7uJc_d-122" value="Francisco Perdiguero" style="text;html=1;align=center;verticalAlign=middle;resizable=0;points=[];autosize=1;strokeColor=none;fillColor=none;" parent="dsDYB3K5QXEbDidPds9u-1" vertex="1">
          <mxGeometry x="1150" y="497" width="140" height="30" as="geometry" />
        </mxCell>
        <mxCell id="wt2irbwT1ydWuY7uJc_d-125" value="" style="shape=image;verticalLabelPosition=bottom;labelBackgroundColor=default;verticalAlign=top;aspect=fixed;imageAspect=0;image=https://cdn0.iconfinder.com/data/icons/trash-13/100/trash_bin_recycle_waste_rubbish-04-512.png;" parent="dsDYB3K5QXEbDidPds9u-1" vertex="1">
          <mxGeometry x="1359.5" y="499.87" width="24.25" height="24.25" as="geometry" />
        </mxCell>
        <mxCell id="xL-tOzKnqsiwL6wojlu8-6" value="" style="shape=image;html=1;verticalAlign=top;verticalLabelPosition=bottom;labelBackgroundColor=#ffffff;imageAspect=0;aspect=fixed;image=https://cdn4.iconfinder.com/data/icons/48-bubbles/48/30.User-128.png" parent="dsDYB3K5QXEbDidPds9u-1" vertex="1">
          <mxGeometry x="1134" y="480" width="15" height="15" as="geometry" />
        </mxCell>
        <mxCell id="xL-tOzKnqsiwL6wojlu8-7" value="" style="shape=image;html=1;verticalAlign=top;verticalLabelPosition=bottom;labelBackgroundColor=#ffffff;imageAspect=0;aspect=fixed;image=https://cdn4.iconfinder.com/data/icons/48-bubbles/48/30.User-128.png" parent="dsDYB3K5QXEbDidPds9u-1" vertex="1">
          <mxGeometry x="1134" y="505" width="15" height="15" as="geometry" />
        </mxCell>
        <mxCell id="6D1Ae3liCXpl_q0b54W5-2" value="" style="ellipse;whiteSpace=wrap;html=1;" parent="dsDYB3K5QXEbDidPds9u-1" vertex="1">
          <mxGeometry x="1132.25" y="528.38" width="13" height="14" as="geometry" />
        </mxCell>
        <mxCell id="6D1Ae3liCXpl_q0b54W5-3" value="" style="rounded=0;whiteSpace=wrap;html=1;" parent="dsDYB3K5QXEbDidPds9u-1" vertex="1">
          <mxGeometry x="1130.25" y="523.38" width="253" height="24" as="geometry" />
        </mxCell>
        <mxCell id="6D1Ae3liCXpl_q0b54W5-4" value="" style="shape=image;verticalLabelPosition=bottom;labelBackgroundColor=default;verticalAlign=top;aspect=fixed;imageAspect=0;image=https://cdn0.iconfinder.com/data/icons/trash-13/100/trash_bin_recycle_waste_rubbish-04-512.png;" parent="dsDYB3K5QXEbDidPds9u-1" vertex="1">
          <mxGeometry x="1359.75" y="523.38" width="24.25" height="24.25" as="geometry" />
        </mxCell>
        <mxCell id="6D1Ae3liCXpl_q0b54W5-5" value="" style="shape=image;html=1;verticalAlign=top;verticalLabelPosition=bottom;labelBackgroundColor=#ffffff;imageAspect=0;aspect=fixed;image=https://cdn4.iconfinder.com/data/icons/48-bubbles/48/30.User-128.png" parent="dsDYB3K5QXEbDidPds9u-1" vertex="1">
          <mxGeometry x="1134.25" y="528.51" width="15" height="15" as="geometry" />
        </mxCell>
        <mxCell id="6D1Ae3liCXpl_q0b54W5-6" value="Unregistered User 1" style="text;html=1;align=center;verticalAlign=middle;resizable=0;points=[];autosize=1;strokeColor=none;fillColor=none;" parent="dsDYB3K5QXEbDidPds9u-1" vertex="1">
          <mxGeometry x="1148" y="520" width="140" height="30" as="geometry" />
        </mxCell>
        <mxCell id="6D1Ae3liCXpl_q0b54W5-11" value="" style="ellipse;whiteSpace=wrap;html=1;" parent="dsDYB3K5QXEbDidPds9u-1" vertex="1">
          <mxGeometry x="1132.25" y="552.38" width="13" height="14" as="geometry" />
        </mxCell>
        <mxCell id="6D1Ae3liCXpl_q0b54W5-12" value="" style="rounded=0;whiteSpace=wrap;html=1;" parent="dsDYB3K5QXEbDidPds9u-1" vertex="1">
          <mxGeometry x="1130.25" y="547.38" width="253" height="24" as="geometry" />
        </mxCell>
        <mxCell id="6D1Ae3liCXpl_q0b54W5-13" value="" style="shape=image;verticalLabelPosition=bottom;labelBackgroundColor=default;verticalAlign=top;aspect=fixed;imageAspect=0;image=https://cdn0.iconfinder.com/data/icons/trash-13/100/trash_bin_recycle_waste_rubbish-04-512.png;" parent="dsDYB3K5QXEbDidPds9u-1" vertex="1">
          <mxGeometry x="1359.75" y="547.38" width="24.25" height="24.25" as="geometry" />
        </mxCell>
        <mxCell id="6D1Ae3liCXpl_q0b54W5-14" value="" style="shape=image;html=1;verticalAlign=top;verticalLabelPosition=bottom;labelBackgroundColor=#ffffff;imageAspect=0;aspect=fixed;image=https://cdn4.iconfinder.com/data/icons/48-bubbles/48/30.User-128.png" parent="dsDYB3K5QXEbDidPds9u-1" vertex="1">
          <mxGeometry x="1134.25" y="552.51" width="15" height="15" as="geometry" />
        </mxCell>
        <mxCell id="6D1Ae3liCXpl_q0b54W5-15" value="Unregistered User 2" style="text;html=1;align=center;verticalAlign=middle;resizable=0;points=[];autosize=1;strokeColor=none;fillColor=none;" parent="dsDYB3K5QXEbDidPds9u-1" vertex="1">
          <mxGeometry x="1148" y="544" width="140" height="30" as="geometry" />
        </mxCell>
        <mxCell id="zMBU4J6VDZ2-IQMpTyG5-1" value="Linked Users" style="text;html=1;align=center;verticalAlign=middle;resizable=0;points=[];autosize=1;strokeColor=default;fillColor=none;" parent="dsDYB3K5QXEbDidPds9u-1" vertex="1">
          <mxGeometry x="1130.25" y="446" width="100" height="30" as="geometry" />
        </mxCell>
        <mxCell id="zMBU4J6VDZ2-IQMpTyG5-3" value="" style="rounded=0;whiteSpace=wrap;html=1;" parent="dsDYB3K5QXEbDidPds9u-1" vertex="1">
          <mxGeometry x="739.5" y="300" width="20" height="20" as="geometry" />
        </mxCell>
        <mxCell id="zMBU4J6VDZ2-IQMpTyG5-4" value="Rent full accomodation to 1 tenant" style="text;html=1;align=center;verticalAlign=middle;resizable=0;points=[];autosize=1;strokeColor=none;fillColor=none;" parent="dsDYB3K5QXEbDidPds9u-1" vertex="1">
          <mxGeometry x="508" y="295.37" width="210" height="30" as="geometry" />
        </mxCell>
        <mxCell id="zMBU4J6VDZ2-IQMpTyG5-9" value="" style="shape=image;html=1;verticalAlign=top;verticalLabelPosition=bottom;labelBackgroundColor=#ffffff;imageAspect=0;aspect=fixed;image=https://cdn3.iconfinder.com/data/icons/user-interface-169/32/checkmark-128.png" parent="dsDYB3K5QXEbDidPds9u-1" vertex="1">
          <mxGeometry x="739" y="301" width="22" height="22" as="geometry" />
        </mxCell>
        <mxCell id="zMBU4J6VDZ2-IQMpTyG5-10" value="€" style="rounded=0;whiteSpace=wrap;html=1;" parent="dsDYB3K5QXEbDidPds9u-1" vertex="1">
          <mxGeometry x="1146" y="796" width="39" height="20" as="geometry" />
        </mxCell>
        <mxCell id="zMBU4J6VDZ2-IQMpTyG5-11" value="$" style="rounded=0;whiteSpace=wrap;html=1;" parent="dsDYB3K5QXEbDidPds9u-1" vertex="1">
          <mxGeometry x="1146" y="816" width="39" height="20" as="geometry" />
        </mxCell>
        <mxCell id="cbe03mHEDEkwIxeUH7mK-1" value="" style="sketch=0;pointerEvents=1;shadow=0;dashed=0;html=1;strokeColor=none;fillColor=#505050;labelPosition=center;verticalLabelPosition=bottom;verticalAlign=top;outlineConnect=0;align=center;shape=mxgraph.office.concepts.calendar;" parent="dsDYB3K5QXEbDidPds9u-1" vertex="1">
          <mxGeometry x="1270" y="1028" width="77.88" height="72" as="geometry" />
        </mxCell>
        <mxCell id="cbe03mHEDEkwIxeUH7mK-3" value="" style="ellipse;whiteSpace=wrap;html=1;aspect=fixed;" parent="dsDYB3K5QXEbDidPds9u-1" vertex="1">
          <mxGeometry x="752" y="940" width="4" height="4" as="geometry" />
        </mxCell>
        <mxCell id="cbe03mHEDEkwIxeUH7mK-6" value="" style="ellipse;whiteSpace=wrap;html=1;aspect=fixed;" parent="dsDYB3K5QXEbDidPds9u-1" vertex="1">
          <mxGeometry x="752" y="947" width="4" height="4" as="geometry" />
        </mxCell>
        <mxCell id="cbe03mHEDEkwIxeUH7mK-7" value="" style="ellipse;whiteSpace=wrap;html=1;aspect=fixed;" parent="dsDYB3K5QXEbDidPds9u-1" vertex="1">
          <mxGeometry x="752" y="953" width="4" height="4" as="geometry" />
        </mxCell>
        <mxCell id="6LwEzOmbxXwbZewZYGdE-0" value="Description" style="rounded=0;whiteSpace=wrap;html=1;align=left;" parent="dsDYB3K5QXEbDidPds9u-1" vertex="1">
          <mxGeometry x="457.5" y="514.5" width="413.5" height="20" as="geometry" />
        </mxCell>
        <mxCell id="6LwEzOmbxXwbZewZYGdE-1" value="" style="rounded=0;whiteSpace=wrap;html=1;align=left;" parent="dsDYB3K5QXEbDidPds9u-1" vertex="1">
          <mxGeometry x="458.5" y="534.5" width="412.5" height="69" as="geometry" />
        </mxCell>
        <mxCell id="R0OsUcS0e61uOVuZ52eD-0" value="" style="rounded=1;whiteSpace=wrap;html=1;" parent="dsDYB3K5QXEbDidPds9u-1" vertex="1">
          <mxGeometry x="350" y="2520" width="620" height="390" as="geometry" />
        </mxCell>
        <mxCell id="R0OsUcS0e61uOVuZ52eD-2" value="Step 5" style="rounded=0;whiteSpace=wrap;html=1;" parent="dsDYB3K5QXEbDidPds9u-1" vertex="1">
          <mxGeometry x="505" y="2420" width="310" height="40" as="geometry" />
        </mxCell>
        <mxCell id="R0OsUcS0e61uOVuZ52eD-8" value="General" style="rounded=0;whiteSpace=wrap;html=1;fillColor=#dae8fc;strokeColor=#6c8ebf;" parent="dsDYB3K5QXEbDidPds9u-1" vertex="1">
          <mxGeometry x="370" y="2390" width="120" height="30" as="geometry" />
        </mxCell>
        <mxCell id="R0OsUcS0e61uOVuZ52eD-9" value="Rent" style="rounded=0;whiteSpace=wrap;html=1;fillColor=#dae8fc;strokeColor=#6c8ebf;" parent="dsDYB3K5QXEbDidPds9u-1" vertex="1">
          <mxGeometry x="490" y="2390" width="120" height="30" as="geometry" />
        </mxCell>
        <mxCell id="R0OsUcS0e61uOVuZ52eD-10" value="Tags" style="rounded=0;whiteSpace=wrap;html=1;fillColor=#dae8fc;strokeColor=#6c8ebf;" parent="dsDYB3K5QXEbDidPds9u-1" vertex="1">
          <mxGeometry x="610" y="2390" width="120" height="30" as="geometry" />
        </mxCell>
        <mxCell id="R0OsUcS0e61uOVuZ52eD-11" value="Location" style="rounded=0;whiteSpace=wrap;html=1;fillColor=#dae8fc;strokeColor=#6c8ebf;" parent="dsDYB3K5QXEbDidPds9u-1" vertex="1">
          <mxGeometry x="730" y="2390" width="120" height="30" as="geometry" />
        </mxCell>
        <mxCell id="R0OsUcS0e61uOVuZ52eD-12" value="Images" style="rounded=0;whiteSpace=wrap;html=1;fillColor=#dae8fc;strokeColor=#6c8ebf;" parent="dsDYB3K5QXEbDidPds9u-1" vertex="1">
          <mxGeometry x="850" y="2390" width="120" height="30" as="geometry" />
        </mxCell>
        <mxCell id="R0OsUcS0e61uOVuZ52eD-14" value="" style="whiteSpace=wrap;html=1;aspect=fixed;" parent="dsDYB3K5QXEbDidPds9u-1" vertex="1">
          <mxGeometry x="410" y="2560" width="110" height="110" as="geometry" />
        </mxCell>
        <mxCell id="R0OsUcS0e61uOVuZ52eD-15" value="" style="rounded=0;whiteSpace=wrap;html=1;" parent="dsDYB3K5QXEbDidPds9u-1" vertex="1">
          <mxGeometry x="410" y="2560" width="110" height="20" as="geometry" />
        </mxCell>
        <mxCell id="R0OsUcS0e61uOVuZ52eD-16" value="photo1" style="rounded=0;whiteSpace=wrap;html=1;" parent="dsDYB3K5QXEbDidPds9u-1" vertex="1">
          <mxGeometry x="410" y="2650" width="110" height="20" as="geometry" />
        </mxCell>
        <mxCell id="R0OsUcS0e61uOVuZ52eD-17" value="" style="html=1;verticalLabelPosition=bottom;labelBackgroundColor=#ffffff;verticalAlign=top;shadow=0;dashed=0;strokeWidth=2;shape=mxgraph.ios7.misc.star;fillColor=#0080f0;strokeColor=none;sketch=0;" parent="dsDYB3K5QXEbDidPds9u-1" vertex="1">
          <mxGeometry x="416" y="2564" width="12" height="12" as="geometry" />
        </mxCell>
        <mxCell id="R0OsUcS0e61uOVuZ52eD-19" value="" style="shape=image;html=1;verticalAlign=top;verticalLabelPosition=bottom;labelBackgroundColor=#ffffff;imageAspect=0;aspect=fixed;image=https://cdn4.iconfinder.com/data/icons/essentials-73/24/039_-_Cross-128.png" parent="dsDYB3K5QXEbDidPds9u-1" vertex="1">
          <mxGeometry x="505" y="2564" width="12" height="12" as="geometry" />
        </mxCell>
        <mxCell id="R0OsUcS0e61uOVuZ52eD-22" value="" style="sketch=0;outlineConnect=0;fontColor=#232F3E;gradientColor=none;fillColor=#666666;strokeColor=none;dashed=0;verticalLabelPosition=bottom;verticalAlign=top;align=center;html=1;fontSize=12;fontStyle=0;aspect=fixed;pointerEvents=1;shape=mxgraph.aws4.container_registry_image;" parent="dsDYB3K5QXEbDidPds9u-1" vertex="1">
          <mxGeometry x="428" y="2580" width="70" height="70" as="geometry" />
        </mxCell>
        <mxCell id="R0OsUcS0e61uOVuZ52eD-23" value="" style="whiteSpace=wrap;html=1;aspect=fixed;" parent="dsDYB3K5QXEbDidPds9u-1" vertex="1">
          <mxGeometry x="544.5" y="2560" width="110" height="110" as="geometry" />
        </mxCell>
        <mxCell id="R0OsUcS0e61uOVuZ52eD-24" value="" style="rounded=0;whiteSpace=wrap;html=1;" parent="dsDYB3K5QXEbDidPds9u-1" vertex="1">
          <mxGeometry x="544.5" y="2560" width="110" height="20" as="geometry" />
        </mxCell>
        <mxCell id="R0OsUcS0e61uOVuZ52eD-25" value="photo2" style="rounded=0;whiteSpace=wrap;html=1;" parent="dsDYB3K5QXEbDidPds9u-1" vertex="1">
          <mxGeometry x="544.5" y="2650" width="110" height="20" as="geometry" />
        </mxCell>
        <mxCell id="R0OsUcS0e61uOVuZ52eD-27" value="" style="shape=image;html=1;verticalAlign=top;verticalLabelPosition=bottom;labelBackgroundColor=#ffffff;imageAspect=0;aspect=fixed;image=https://cdn4.iconfinder.com/data/icons/essentials-73/24/039_-_Cross-128.png" parent="dsDYB3K5QXEbDidPds9u-1" vertex="1">
          <mxGeometry x="639.5" y="2564" width="12" height="12" as="geometry" />
        </mxCell>
        <mxCell id="R0OsUcS0e61uOVuZ52eD-28" value="" style="sketch=0;outlineConnect=0;fontColor=#232F3E;gradientColor=none;fillColor=#666666;strokeColor=none;dashed=0;verticalLabelPosition=bottom;verticalAlign=top;align=center;html=1;fontSize=12;fontStyle=0;aspect=fixed;pointerEvents=1;shape=mxgraph.aws4.container_registry_image;" parent="dsDYB3K5QXEbDidPds9u-1" vertex="1">
          <mxGeometry x="562.5" y="2580" width="70" height="70" as="geometry" />
        </mxCell>
        <mxCell id="R0OsUcS0e61uOVuZ52eD-18" value="" style="html=1;verticalLabelPosition=bottom;align=center;labelBackgroundColor=#ffffff;verticalAlign=top;strokeWidth=2;strokeColor=#0080F0;shadow=0;dashed=0;shape=mxgraph.ios7.icons.star;" parent="dsDYB3K5QXEbDidPds9u-1" vertex="1">
          <mxGeometry x="550.5" y="2564" width="12" height="12" as="geometry" />
        </mxCell>
        <mxCell id="R0OsUcS0e61uOVuZ52eD-29" value="" style="whiteSpace=wrap;html=1;aspect=fixed;" parent="dsDYB3K5QXEbDidPds9u-1" vertex="1">
          <mxGeometry x="678.25" y="2560" width="110" height="110" as="geometry" />
        </mxCell>
        <mxCell id="R0OsUcS0e61uOVuZ52eD-30" value="" style="rounded=0;whiteSpace=wrap;html=1;" parent="dsDYB3K5QXEbDidPds9u-1" vertex="1">
          <mxGeometry x="678.25" y="2560" width="110" height="20" as="geometry" />
        </mxCell>
        <mxCell id="R0OsUcS0e61uOVuZ52eD-31" value="photo3" style="rounded=0;whiteSpace=wrap;html=1;" parent="dsDYB3K5QXEbDidPds9u-1" vertex="1">
          <mxGeometry x="678.25" y="2650" width="110" height="20" as="geometry" />
        </mxCell>
        <mxCell id="R0OsUcS0e61uOVuZ52eD-32" value="" style="shape=image;html=1;verticalAlign=top;verticalLabelPosition=bottom;labelBackgroundColor=#ffffff;imageAspect=0;aspect=fixed;image=https://cdn4.iconfinder.com/data/icons/essentials-73/24/039_-_Cross-128.png" parent="dsDYB3K5QXEbDidPds9u-1" vertex="1">
          <mxGeometry x="773.25" y="2564" width="12" height="12" as="geometry" />
        </mxCell>
        <mxCell id="R0OsUcS0e61uOVuZ52eD-33" value="" style="sketch=0;outlineConnect=0;fontColor=#232F3E;gradientColor=none;fillColor=#666666;strokeColor=none;dashed=0;verticalLabelPosition=bottom;verticalAlign=top;align=center;html=1;fontSize=12;fontStyle=0;aspect=fixed;pointerEvents=1;shape=mxgraph.aws4.container_registry_image;" parent="dsDYB3K5QXEbDidPds9u-1" vertex="1">
          <mxGeometry x="696.25" y="2580" width="70" height="70" as="geometry" />
        </mxCell>
        <mxCell id="R0OsUcS0e61uOVuZ52eD-34" value="" style="html=1;verticalLabelPosition=bottom;align=center;labelBackgroundColor=#ffffff;verticalAlign=top;strokeWidth=2;strokeColor=#0080F0;shadow=0;dashed=0;shape=mxgraph.ios7.icons.star;" parent="dsDYB3K5QXEbDidPds9u-1" vertex="1">
          <mxGeometry x="684.25" y="2564" width="12" height="12" as="geometry" />
        </mxCell>
        <mxCell id="R0OsUcS0e61uOVuZ52eD-35" value="&lt;font style=&quot;font-size: 36px;&quot;&gt;+&lt;/font&gt;" style="whiteSpace=wrap;html=1;aspect=fixed;" parent="dsDYB3K5QXEbDidPds9u-1" vertex="1">
          <mxGeometry x="809" y="2560" width="110" height="110" as="geometry" />
        </mxCell>
        <mxCell id="ROSuupKm63P1LUin0Mub-1" value="" style="rounded=1;whiteSpace=wrap;html=1;" parent="dsDYB3K5QXEbDidPds9u-1" vertex="1">
          <mxGeometry x="354" y="1930" width="620" height="390" as="geometry" />
        </mxCell>
        <mxCell id="ROSuupKm63P1LUin0Mub-3" value="Step 4" style="rounded=0;whiteSpace=wrap;html=1;" parent="dsDYB3K5QXEbDidPds9u-1" vertex="1">
          <mxGeometry x="509" y="1830" width="310" height="40" as="geometry" />
        </mxCell>
        <mxCell id="ROSuupKm63P1LUin0Mub-9" value="General" style="rounded=0;whiteSpace=wrap;html=1;fillColor=#dae8fc;strokeColor=#6c8ebf;" parent="dsDYB3K5QXEbDidPds9u-1" vertex="1">
          <mxGeometry x="374" y="1800" width="120" height="30" as="geometry" />
        </mxCell>
        <mxCell id="ROSuupKm63P1LUin0Mub-10" value="Rent" style="rounded=0;whiteSpace=wrap;html=1;fillColor=#dae8fc;strokeColor=#6c8ebf;" parent="dsDYB3K5QXEbDidPds9u-1" vertex="1">
          <mxGeometry x="494" y="1800" width="120" height="30" as="geometry" />
        </mxCell>
        <mxCell id="ROSuupKm63P1LUin0Mub-11" value="Tags" style="rounded=0;whiteSpace=wrap;html=1;fillColor=#dae8fc;strokeColor=#6c8ebf;" parent="dsDYB3K5QXEbDidPds9u-1" vertex="1">
          <mxGeometry x="614" y="1800" width="120" height="30" as="geometry" />
        </mxCell>
        <mxCell id="ROSuupKm63P1LUin0Mub-12" value="Location" style="rounded=0;whiteSpace=wrap;html=1;fillColor=#dae8fc;strokeColor=#6c8ebf;" parent="dsDYB3K5QXEbDidPds9u-1" vertex="1">
          <mxGeometry x="734" y="1800" width="120" height="30" as="geometry" />
        </mxCell>
        <mxCell id="ROSuupKm63P1LUin0Mub-13" value="Images" style="rounded=0;whiteSpace=wrap;html=1;" parent="dsDYB3K5QXEbDidPds9u-1" vertex="1">
          <mxGeometry x="854" y="1800" width="120" height="30" as="geometry" />
        </mxCell>
        <mxCell id="ROSuupKm63P1LUin0Mub-0" value="" style="verticalLabelPosition=bottom;shadow=0;dashed=0;align=center;html=1;verticalAlign=top;strokeWidth=1;shape=mxgraph.mockup.misc.map;" parent="dsDYB3K5QXEbDidPds9u-1" vertex="1">
          <mxGeometry x="414" y="2000" width="506" height="270" as="geometry" />
        </mxCell>
        <mxCell id="QRi11fynyKy9cddVFHQd-0" value="Select location of the building (we will show an area, not the specific location)" style="rounded=0;whiteSpace=wrap;html=1;" parent="dsDYB3K5QXEbDidPds9u-1" vertex="1">
          <mxGeometry x="434.25" y="1980" width="465.75" height="20" as="geometry" />
        </mxCell>
        <mxCell id="QRi11fynyKy9cddVFHQd-1" value="" style="ellipse;whiteSpace=wrap;html=1;fillColor=#dae8fc;strokeColor=#6c8ebf;rotation=-30;opacity=70;" parent="dsDYB3K5QXEbDidPds9u-1" vertex="1">
          <mxGeometry x="606" y="2020" width="45.5" height="60" as="geometry" />
        </mxCell>
        <mxCell id="QRi11fynyKy9cddVFHQd-3" value="&amp;nbsp;&amp;nbsp;&amp;nbsp;&amp;nbsp;&amp;nbsp;&amp;nbsp;&amp;nbsp;&amp;nbsp; Kitchen" style="rounded=0;whiteSpace=wrap;html=1;align=left;" parent="dsDYB3K5QXEbDidPds9u-1" vertex="1">
          <mxGeometry x="457.5" y="1530" width="412.5" height="20" as="geometry" />
        </mxCell>
        <mxCell id="QRi11fynyKy9cddVFHQd-4" value="&amp;nbsp;&amp;nbsp;&amp;nbsp;&amp;nbsp;&amp;nbsp;&amp;nbsp;&amp;nbsp;&amp;nbsp; Other building related" style="rounded=0;whiteSpace=wrap;html=1;align=left;" parent="dsDYB3K5QXEbDidPds9u-1" vertex="1">
          <mxGeometry x="457.5" y="1550" width="412.5" height="20" as="geometry" />
        </mxCell>
        <mxCell id="QRi11fynyKy9cddVFHQd-5" value="&amp;nbsp;&amp;nbsp;&amp;nbsp;&amp;nbsp;&amp;nbsp;&amp;nbsp;&amp;nbsp;&amp;nbsp; Personal PreferencesTags" style="rounded=0;whiteSpace=wrap;html=1;align=left;" parent="dsDYB3K5QXEbDidPds9u-1" vertex="1">
          <mxGeometry x="457.5" y="1570" width="412.5" height="20" as="geometry" />
        </mxCell>
        <mxCell id="QRi11fynyKy9cddVFHQd-6" value="" style="triangle;whiteSpace=wrap;html=1;rotation=90;" parent="dsDYB3K5QXEbDidPds9u-1" vertex="1">
          <mxGeometry x="767.07" y="1397.19" width="14.75" height="24.38" as="geometry" />
        </mxCell>
        <mxCell id="QRi11fynyKy9cddVFHQd-7" value="" style="rounded=0;whiteSpace=wrap;html=1;" parent="dsDYB3K5QXEbDidPds9u-1" vertex="1">
          <mxGeometry x="830" y="1400" width="40" height="20" as="geometry" />
        </mxCell>
        <mxCell id="QRi11fynyKy9cddVFHQd-8" value="5/7" style="rounded=0;whiteSpace=wrap;html=1;" parent="dsDYB3K5QXEbDidPds9u-1" vertex="1">
          <mxGeometry x="790" y="1400" width="40" height="20" as="geometry" />
        </mxCell>
        <mxCell id="QRi11fynyKy9cddVFHQd-9" value="" style="shape=image;html=1;verticalAlign=top;verticalLabelPosition=bottom;labelBackgroundColor=#ffffff;imageAspect=0;aspect=fixed;image=https://cdn3.iconfinder.com/data/icons/snowish/128x128/actions/edit-clear.png" parent="dsDYB3K5QXEbDidPds9u-1" vertex="1">
          <mxGeometry x="840" y="1400" width="21.57" height="21.57" as="geometry" />
        </mxCell>
        <mxCell id="QRi11fynyKy9cddVFHQd-10" value="" style="triangle;whiteSpace=wrap;html=1;rotation=90;" parent="dsDYB3K5QXEbDidPds9u-1" vertex="1">
          <mxGeometry x="767.25" y="1507.6200000000001" width="14.75" height="24.38" as="geometry" />
        </mxCell>
        <mxCell id="QRi11fynyKy9cddVFHQd-11" value="" style="rounded=0;whiteSpace=wrap;html=1;" parent="dsDYB3K5QXEbDidPds9u-1" vertex="1">
          <mxGeometry x="830.18" y="1510.43" width="40" height="20" as="geometry" />
        </mxCell>
        <mxCell id="QRi11fynyKy9cddVFHQd-12" value="5/7" style="rounded=0;whiteSpace=wrap;html=1;" parent="dsDYB3K5QXEbDidPds9u-1" vertex="1">
          <mxGeometry x="790.18" y="1510.43" width="40" height="20" as="geometry" />
        </mxCell>
        <mxCell id="QRi11fynyKy9cddVFHQd-13" value="" style="shape=image;html=1;verticalAlign=top;verticalLabelPosition=bottom;labelBackgroundColor=#ffffff;imageAspect=0;aspect=fixed;image=https://cdn3.iconfinder.com/data/icons/snowish/128x128/actions/edit-clear.png" parent="dsDYB3K5QXEbDidPds9u-1" vertex="1">
          <mxGeometry x="840.18" y="1510.43" width="21.57" height="21.57" as="geometry" />
        </mxCell>
        <mxCell id="QRi11fynyKy9cddVFHQd-14" value="" style="triangle;whiteSpace=wrap;html=1;rotation=90;" parent="dsDYB3K5QXEbDidPds9u-1" vertex="1">
          <mxGeometry x="767.25" y="1527.6200000000001" width="14.75" height="24.38" as="geometry" />
        </mxCell>
        <mxCell id="QRi11fynyKy9cddVFHQd-15" value="" style="rounded=0;whiteSpace=wrap;html=1;" parent="dsDYB3K5QXEbDidPds9u-1" vertex="1">
          <mxGeometry x="830.18" y="1530.43" width="40" height="20" as="geometry" />
        </mxCell>
        <mxCell id="QRi11fynyKy9cddVFHQd-16" value="5/7" style="rounded=0;whiteSpace=wrap;html=1;" parent="dsDYB3K5QXEbDidPds9u-1" vertex="1">
          <mxGeometry x="790.18" y="1530.43" width="40" height="20" as="geometry" />
        </mxCell>
        <mxCell id="QRi11fynyKy9cddVFHQd-17" value="" style="shape=image;html=1;verticalAlign=top;verticalLabelPosition=bottom;labelBackgroundColor=#ffffff;imageAspect=0;aspect=fixed;image=https://cdn3.iconfinder.com/data/icons/snowish/128x128/actions/edit-clear.png" parent="dsDYB3K5QXEbDidPds9u-1" vertex="1">
          <mxGeometry x="840.18" y="1530.43" width="21.57" height="21.57" as="geometry" />
        </mxCell>
        <mxCell id="QRi11fynyKy9cddVFHQd-18" value="" style="triangle;whiteSpace=wrap;html=1;rotation=90;" parent="dsDYB3K5QXEbDidPds9u-1" vertex="1">
          <mxGeometry x="767.25" y="1547.6200000000001" width="14.75" height="24.38" as="geometry" />
        </mxCell>
        <mxCell id="QRi11fynyKy9cddVFHQd-19" value="" style="rounded=0;whiteSpace=wrap;html=1;" parent="dsDYB3K5QXEbDidPds9u-1" vertex="1">
          <mxGeometry x="830.18" y="1550.43" width="40" height="20" as="geometry" />
        </mxCell>
        <mxCell id="QRi11fynyKy9cddVFHQd-20" value="5/7" style="rounded=0;whiteSpace=wrap;html=1;" parent="dsDYB3K5QXEbDidPds9u-1" vertex="1">
          <mxGeometry x="790.18" y="1550.43" width="40" height="20" as="geometry" />
        </mxCell>
        <mxCell id="QRi11fynyKy9cddVFHQd-21" value="" style="shape=image;html=1;verticalAlign=top;verticalLabelPosition=bottom;labelBackgroundColor=#ffffff;imageAspect=0;aspect=fixed;image=https://cdn3.iconfinder.com/data/icons/snowish/128x128/actions/edit-clear.png" parent="dsDYB3K5QXEbDidPds9u-1" vertex="1">
          <mxGeometry x="840.18" y="1550.43" width="21.57" height="21.57" as="geometry" />
        </mxCell>
        <mxCell id="QRi11fynyKy9cddVFHQd-22" value="" style="triangle;whiteSpace=wrap;html=1;rotation=90;" parent="dsDYB3K5QXEbDidPds9u-1" vertex="1">
          <mxGeometry x="767.25" y="1567.6200000000001" width="14.75" height="24.38" as="geometry" />
        </mxCell>
        <mxCell id="QRi11fynyKy9cddVFHQd-23" value="" style="rounded=0;whiteSpace=wrap;html=1;" parent="dsDYB3K5QXEbDidPds9u-1" vertex="1">
          <mxGeometry x="830.18" y="1570.43" width="40" height="20" as="geometry" />
        </mxCell>
        <mxCell id="QRi11fynyKy9cddVFHQd-24" value="5/7" style="rounded=0;whiteSpace=wrap;html=1;" parent="dsDYB3K5QXEbDidPds9u-1" vertex="1">
          <mxGeometry x="790.18" y="1570.43" width="40" height="20" as="geometry" />
        </mxCell>
        <mxCell id="QRi11fynyKy9cddVFHQd-25" value="" style="shape=image;html=1;verticalAlign=top;verticalLabelPosition=bottom;labelBackgroundColor=#ffffff;imageAspect=0;aspect=fixed;image=https://cdn3.iconfinder.com/data/icons/snowish/128x128/actions/edit-clear.png" parent="dsDYB3K5QXEbDidPds9u-1" vertex="1">
          <mxGeometry x="840.18" y="1570.43" width="21.57" height="21.57" as="geometry" />
        </mxCell>
        <mxCell id="QRi11fynyKy9cddVFHQd-26" value="" style="rounded=0;whiteSpace=wrap;html=1;" parent="dsDYB3K5QXEbDidPds9u-1" vertex="1">
          <mxGeometry x="458.5" y="1420.57" width="371.5" height="69.43" as="geometry" />
        </mxCell>
        <mxCell id="QRi11fynyKy9cddVFHQd-31" value="..." style="rounded=0;whiteSpace=wrap;html=1;fillColor=#dae8fc;strokeColor=#6c8ebf;" parent="dsDYB3K5QXEbDidPds9u-1" vertex="1">
          <mxGeometry x="567.25" y="1428" width="100" height="25" as="geometry" />
        </mxCell>
        <mxCell id="QRi11fynyKy9cddVFHQd-27" value="Wifi" style="rounded=0;whiteSpace=wrap;html=1;" parent="dsDYB3K5QXEbDidPds9u-1" vertex="1">
          <mxGeometry x="569.25" y="1430" width="95" height="20" as="geometry" />
        </mxCell>
        <mxCell id="QRi11fynyKy9cddVFHQd-28" value="TV" style="rounded=0;whiteSpace=wrap;html=1;" parent="dsDYB3K5QXEbDidPds9u-1" vertex="1">
          <mxGeometry x="465" y="1430" width="95" height="20" as="geometry" />
        </mxCell>
        <mxCell id="QRi11fynyKy9cddVFHQd-29" value="Smoke Detector" style="rounded=0;whiteSpace=wrap;html=1;" parent="dsDYB3K5QXEbDidPds9u-1" vertex="1">
          <mxGeometry x="674" y="1430" width="95" height="20" as="geometry" />
        </mxCell>
        <mxCell id="QRi11fynyKy9cddVFHQd-30" value="..." style="rounded=0;whiteSpace=wrap;html=1;" parent="dsDYB3K5QXEbDidPds9u-1" vertex="1">
          <mxGeometry x="465" y="1460" width="95" height="20" as="geometry" />
        </mxCell>
      </root>
    </mxGraphModel>
  </diagram>
</mxfile>
